# xmcd
#
# Track frame offsets: 
#        150
#        22127
#        40389
#        73336
#        115480
#        131539
#        154643
#        171602
#        187019
#        208808
#        237641
#        257951
#        275107
#        303164
#
# Disc length: 4437 seconds
#
# Revision: 0
# Processed by: cddbd v1.5.2PL0 Copyright (c) Steve Scherf et al.
# Submitted via: ExactAudioCopy v0.99pb4
#
DISCID=e511530e
DTITLE=Willy DeVille - Live At Montreux 1994
DYEAR=2009
DGENRE=Blues Rock
TTITLE0=Slow Drain
TTITLE1=Steady Driving Man
TTITLE2=Cadillac Walk
TTITLE3=Mixed Up Shook Up Girl
TTITLE4=Key To My Heart
TTITLE5=Angel Eyes
TTITLE6=Heaven Stood Still
TTITLE7=Even While I Sleep
TTITLE8=Demasiado Corazon (Too Much Heart)
TTITLE9=Spanish Stroll
TTITLE10=Hey Joe
TTITLE11=New Orleans
TTITLE12=Stand By Me
TTITLE13=Dust My Broom
EXTD=
EXTT0=
EXTT1=
EXTT2=
EXTT3=
EXTT4=
EXTT5=
EXTT6=
EXTT7=
EXTT8=
EXTT9=
EXTT10=
EXTT11=
EXTT12=
EXTT13=
PLAYORDER=
